<svg xmlns="http://www.w3.org/2000/svg" width="87.215" height="87.215" viewBox="0 0 87.215 87.215">
  <g id="Group_15891" data-name="Group 15891" transform="translate(-659 -3820)">
    <rect id="Rectangle_1937" data-name="Rectangle 1937" width="87.215" height="87.215" transform="translate(659 3820)" fill="none"/>
    <g id="noun-lighthouse-4325155" transform="translate(663.598 3829.436)">
      <path id="Path_4336" data-name="Path 4336" d="M455.869,142.564l21.2,7.951a1.375,1.375,0,0,0,.466.083,1.325,1.325,0,0,0,.466-2.567l-21.2-7.951a1.326,1.326,0,0,0-.928,2.484Z" transform="translate(-399.35 -124.465)" fill="#f6533f"/>
      <path id="Path_4337" data-name="Path 4337" d="M456.3,70.518a1.352,1.352,0,0,0,.4-.06l21.2-6.626a1.326,1.326,0,0,0-.8-2.531l-21.2,6.626a1.325,1.325,0,0,0,.4,2.591Z" transform="translate(-399.313 -57.637)" fill="#f6533f"/>
      <path id="Path_4338" data-name="Path 4338" d="M88.834,150.6a1.375,1.375,0,0,0,.466-.083l21.2-7.951a1.326,1.326,0,1,0-.928-2.484l-21.2,7.951a1.325,1.325,0,0,0,.461,2.567Z" transform="translate(-87.507 -124.464)" fill="#f6533f"/>
      <path id="Path_4339" data-name="Path 4339" d="M88.419,63.833l21.2,6.626a1.352,1.352,0,0,0,.4.06,1.325,1.325,0,0,0,.4-2.591L89.214,61.3a1.326,1.326,0,1,0-.8,2.531Z" transform="translate(-87.49 -57.638)" fill="#f6533f"/>
      <path id="Path_4340" data-name="Path 4340" d="M288.75,105h2.65v7.951h-2.65Z" transform="translate(-258.269 -94.769)" fill="#f6533f"/>
      <path id="Path_4341" data-name="Path 4341" d="M335.15,420a2.65,2.65,0,0,0-2.65,2.65v2.65h5.3v-2.65a2.65,2.65,0,0,0-2.65-2.65Z" transform="translate(-295.393 -362.062)" fill="#f6533f"/>
      <path id="Path_4342" data-name="Path 4342" d="M271.25,175H295.1v2.65H271.25Z" transform="translate(-243.419 -154.168)" fill="#f6533f"/>
      <path id="Path_4343" data-name="Path 4343" d="M296.913,37.449l-9.475,7.58h18.95Z" transform="translate(-257.155 -37.449)" fill="#f6533f"/>
      <path id="Path_4344" data-name="Path 4344" d="M393.75,105h2.65v7.951h-2.65Z" transform="translate(-347.366 -94.769)" fill="#f6533f"/>
      <path id="Path_4345" data-name="Path 4345" d="M323.75,105H331.7v7.951H323.75Z" transform="translate(-287.968 -94.769)" fill="#f6533f"/>
      <path id="Path_4346" data-name="Path 4346" d="M335.15,332.5a2.65,2.65,0,0,0-2.65,2.65v2.65h5.3v-2.65a2.65,2.65,0,0,0-2.65-2.65Z" transform="translate(-295.393 -287.814)" fill="#f6533f"/>
      <path id="Path_4347" data-name="Path 4347" d="M335.15,245a2.65,2.65,0,0,0-2.65,2.65v2.65h5.3v-2.65a2.65,2.65,0,0,0-2.65-2.65Z" transform="translate(-295.393 -213.566)" fill="#f6533f"/>
      <path id="Path_4348" data-name="Path 4348" d="M165.692,256.382H141.554L136.671,210H117.853l-4.883,46.382H88.831a1.325,1.325,0,1,0,0,2.65h76.862a1.325,1.325,0,1,0,0-2.65Zm-43.732-38.431a5.3,5.3,0,1,1,10.6,0v3.976a1.325,1.325,0,0,1-1.325,1.325h-7.951a1.325,1.325,0,0,1-1.325-1.325Zm0,13.252a5.3,5.3,0,1,1,10.6,0v3.976a1.325,1.325,0,0,1-1.325,1.325h-7.951a1.325,1.325,0,0,1-1.325-1.325Zm0,13.252a5.3,5.3,0,1,1,10.6,0v3.976a1.325,1.325,0,0,1-1.325,1.325h-7.951a1.325,1.325,0,0,1-1.325-1.325Z" transform="translate(-87.504 -183.867)" fill="#f6533f"/>
    </g>
  </g>
</svg>
