<svg xmlns="http://www.w3.org/2000/svg" width="94.052" height="94.051" viewBox="0 0 94.052 94.051">
  <g id="Group_15896" data-name="Group 15896" transform="translate(-659 -3820)">
    <rect id="Rectangle_1937" data-name="Rectangle 1937" width="94.052" height="94.052" transform="translate(659 3820)" fill="none"/>
    <g id="Group_15778" data-name="Group 15778" transform="translate(-16394.148 -14778.404)">
      <path id="Path_4264" data-name="Path 4264" d="M156.768,427.647a7.577,7.577,0,0,0-7.455-6.307,7.391,7.391,0,0,0-2.7.494,7.6,7.6,0,0,0-4.758,5.813H139.32a10.14,10.14,0,0,1,5.11-7.562,17.64,17.64,0,0,0-28.463-2.924,1.262,1.262,0,0,1-.9.42c-8.947.252-16.345,4.651-17.352,10.066H87.5v2.523h75.686v-2.523Z" transform="translate(16974.828 18253.254)" fill="#f6533f"/>
      <path id="Path_4265" data-name="Path 4265" d="M110.046,233.955h8.83a1.261,1.261,0,0,1,1.261,1.261v9.546a27.035,27.035,0,0,1,5.046-1.441V230.171a1.262,1.262,0,0,1,1.261-1.261h10.091a2.523,2.523,0,0,0,2.523-2.523V214.4a1.892,1.892,0,0,0-2.1-1.892,2.011,2.011,0,0,0-1.689,2.069V222.6a1.261,1.261,0,0,1-1.261,1.261h-7.569a1.262,1.262,0,0,1-1.261-1.261v-9.877a2.685,2.685,0,0,0-2.4-2.737,2.6,2.6,0,0,0-1.866.69,2.509,2.509,0,0,0-.783,1.833v15.137a1.261,1.261,0,0,1-1.261,1.261h-7.569a1.262,1.262,0,0,1-1.261-1.261v-2.523a2.523,2.523,0,1,0-5.046,0v3.784a5.045,5.045,0,0,0,5.046,5.046Z" transform="translate(16959.855 18425.502)" fill="#f6533f"/>
      <path id="Path_4266" data-name="Path 4266" d="M443.887,95.069a7.569,7.569,0,1,1-7.569-7.569,7.568,7.568,0,0,1,7.569,7.569" transform="translate(16682.777 18530.33)" fill="#f6533f"/>
      <path id="Path_4267" data-name="Path 4267" d="M472.5,26.25h2.523v3.784H472.5Z" transform="translate(16645.334 18582.75)" fill="#f6533f"/>
      <path id="Path_4268" data-name="Path 4268" d="M378.36,77.744l1.261-2.185,3.277,1.892-1.261,2.185Z" transform="translate(16725.902 18540.551)" fill="#f6533f"/>
      <path id="Path_4269" data-name="Path 4269" d="M378.36,178.061l3.277-1.892,1.261,2.185-3.277,1.892Z" transform="translate(16725.902 18454.445)" fill="#f6533f"/>
      <path id="Path_4270" data-name="Path 4270" d="M472.5,227.5h2.523v3.784H472.5Z" transform="translate(16645.334 18410.514)" fill="#f6533f"/>
      <path id="Path_4271" data-name="Path 4271" d="M552.65,178.369l1.261-2.185,3.277,1.892-1.261,2.185Z" transform="translate(16576.738 18454.432)" fill="#f6533f"/>
      <path id="Path_4272" data-name="Path 4272" d="M552.65,77.443l3.277-1.892,1.261,2.185-3.277,1.892Z" transform="translate(16576.738 18540.557)" fill="#f6533f"/>
    </g>
  </g>
</svg>
