<svg xmlns="http://www.w3.org/2000/svg" width="94.052" height="94.051" viewBox="0 0 94.052 94.051">
  <g id="Group_15895" data-name="Group 15895" transform="translate(-248 -3788.919)">
    <g id="Group_15615" data-name="Group 15615" transform="translate(-411 -31.081)">
      <rect id="Rectangle_1937" data-name="Rectangle 1937" width="94.052" height="94.052" transform="translate(659 3820)" fill="none"/>
    </g>
    <g id="Group_15881" data-name="Group 15881" transform="translate(184.845 3795.764)">
      <path id="Path_4280" data-name="Path 4280" d="M337.75,2.918h3.217V8.331H337.75Z" transform="translate(-229.216 0)" fill="#dd6939"/>
      <path id="Path_4281" data-name="Path 4281" d="M337.75,516.83h3.217v5.413H337.75Z" transform="translate(-229.216 -444.799)" fill="#dd6939"/>
      <path id="Path_4282" data-name="Path 4282" d="M586.83,267.75h5.413v3.217H586.83Z" transform="translate(-444.799 -229.216)" fill="#dd6939"/>
      <path id="Path_4283" data-name="Path 4283" d="M72.918,267.75h5.413v3.217H72.918Z" transform="translate(0 -229.216)" fill="#dd6939"/>
      <path id="Path_4284" data-name="Path 4284" d="M512.867,75.66l2.274,2.274-3.828,3.828-2.274-2.274Z" transform="translate(-377.47 -62.959)" fill="#dd6939"/>
      <path id="Path_4285" data-name="Path 4285" d="M148.034,445.081l-2.274-2.275,3.828-3.827,2.274,2.275Z" transform="translate(-63.046 -377.418)" fill="#dd6939"/>
      <path id="Path_4286" data-name="Path 4286" d="M512.82,444.987l-3.827-3.828,2.275-2.274,3.827,3.828Z" transform="translate(-377.43 -377.337)" fill="#dd6939"/>
      <path id="Path_4287" data-name="Path 4287" d="M147.934,75.582l3.828,3.828-2.274,2.274-3.828-3.828Z" transform="translate(-62.959 -62.892)" fill="#dd6939"/>
      <path id="Path_4288" data-name="Path 4288" d="M172.143,87.944l-1.412,2.432-1.412-2.432c-.078-.157-6.982-11.846-17.886-11.846h-.471l-.078-3.217c10.042-.314,17.023,7.453,19.769,11.3,2.2-2.981,6.9-8.394,13.572-10.433A29.318,29.318,0,0,0,158.65,58.918a29.774,29.774,0,1,0,27.221,17.807c-8.472,2.353-13.65,11.14-13.728,11.218Zm-12.787,8c-5.805-.157-9.649,6.276-9.727,6.354l-1.412,2.432-1.334-2.51c0-.078-3.766-6.354-9.492-6.354h-.235l-.078-3.217c5.413-.157,9.257,3.53,11.218,5.962,1.961-2.432,5.805-6.119,11.218-5.962Z" transform="translate(-48.469 -48.469)" fill="#dd6939"/>
      <path id="Path_4289" data-name="Path 4289" d="M540.75,163.864a21.1,21.1,0,0,1,1.49,2.981,14.386,14.386,0,0,1,4.158-.549h.471l.078-3.217A16.242,16.242,0,0,0,540.75,163.864Z" transform="translate(-404.916 -138.588)" fill="#dd6939"/>
    </g>
  </g>
</svg>
