<svg xmlns="http://www.w3.org/2000/svg" width="94.052" height="94.051" viewBox="0 0 94.052 94.051">
  <g id="Group_15889" data-name="Group 15889" transform="translate(-248 -3788.919)">
    <g id="Group_15615" data-name="Group 15615" transform="translate(-411 -31.081)">
      <rect id="Rectangle_1937" data-name="Rectangle 1937" width="94.052" height="94.052" transform="translate(659 3820)" fill="none"/>
    </g>
    <path id="Path_4216" data-name="Path 4216" d="M141.672,69.715a8.751,8.751,0,1,1-8.75,8.751A8.749,8.749,0,0,1,141.672,69.715Zm-22.5,0a8.751,8.751,0,1,1-8.75,8.751A8.749,8.749,0,0,1,119.168,69.715Zm8.907,40.854v21.405H110.269V107.857h-4.8V99.671a10.281,10.281,0,0,1,10.259-10.259h6.877a10.221,10.221,0,0,1,5.8,1.805,12.892,12.892,0,0,0-3.147,8.453v10.9h2.812Zm36.1-40.854a8.751,8.751,0,1,1-8.751,8.751A8.748,8.748,0,0,1,164.176,69.715Zm8.905,38.144v24.117h-17.8V110.571h2.805v-10.9a12.9,12.9,0,0,0-3.147-8.453,10.22,10.22,0,0,1,5.8-1.805h6.877a10.281,10.281,0,0,1,10.259,10.259v8.186h-4.791Zm-22.5,0v24.117h-17.8V107.859h-4.8V99.673a10.281,10.281,0,0,1,10.259-10.259h6.877a10.281,10.281,0,0,1,10.259,10.259v8.186Z" transform="translate(153.354 3735.099)" fill="#f8cc66" fill-rule="evenodd"/>
  </g>
</svg>
