<svg xmlns="http://www.w3.org/2000/svg" width="94.052" height="94.051" viewBox="0 0 94.052 94.051">
  <g id="Group_15890" data-name="Group 15890" transform="translate(-659 -3820)">
    <rect id="Rectangle_1937" data-name="Rectangle 1937" width="94.052" height="94.052" transform="translate(659 3820)" fill="none"/>
    <g id="noun-fence-4498517" transform="translate(564.676 3796.307)">
      <path id="Path_4290" data-name="Path 4290" d="M117.315,41.52l-5.155,6.21v52.328h11.168V47.73l-.123-.123Z" transform="translate(0 -0.069)" fill="#19338f"/>
      <path id="Path_4291" data-name="Path 4291" d="M244.225,47.651l-6-6.21-5.171,6.21V58.166H222.159v6.087h10.893V81.042H222.159v6.087h10.893V100h11.173V87.129h.024V81.042h-.024V64.253h.024V58.166h-.024Z" transform="translate(-96.499)" fill="#19338f"/>
      <path id="Path_4292" data-name="Path 4292" d="M436.491,41.441l-5.174,6.21V58.166h-9.158v6.087h9.158V81.042h-9.158v6.087h9.158V100h11.175V47.651Z" transform="translate(-271.954)" fill="#19338f"/>
    </g>
  </g>
</svg>
