<svg xmlns="http://www.w3.org/2000/svg" width="94.052" height="94.051" viewBox="0 0 94.052 94.051">
  <g id="Group_15892" data-name="Group 15892" transform="translate(-659 -3820)">
    <rect id="Rectangle_1937" data-name="Rectangle 1937" width="94.052" height="94.052" transform="translate(659 3820)" fill="none"/>
    <path id="Path_4349" data-name="Path 4349" d="M151.359,51.285l-19.678,1.208a2.829,2.829,0,0,1-2.913-2.131l-4.973-19.11a2.821,2.821,0,0,0-5.47,0l-4.973,19.11a2.9,2.9,0,0,1-2.913,2.131L90.833,51.285a2.825,2.825,0,0,0-1.705,5.186l16.624,10.585a2.9,2.9,0,0,1,1.137,3.41l-7.246,18.4a2.808,2.808,0,0,0,4.4,3.2l15.2-12.574a2.786,2.786,0,0,1,3.552,0l15.345,12.575a2.808,2.808,0,0,0,4.4-3.2l-7.246-18.4a2.813,2.813,0,0,1,1.137-3.41l16.624-10.585a2.825,2.825,0,0,0-1.705-5.186ZM105.893,86.876l-.426.568a1.111,1.111,0,0,1-.852.426,1.144,1.144,0,0,1-.639-.213,1.052,1.052,0,0,1-.284-1.492l.426-.568a1.052,1.052,0,0,1,1.492-.284,1.147,1.147,0,0,1,.283,1.563ZM95.023,55.405a1.069,1.069,0,0,1-.995.711.642.642,0,0,1-.355-.071l-.711-.213a1.079,1.079,0,1,1,.639-2.061l.711.213a1.11,1.11,0,0,1,.711,1.421Zm6.11,1.918a1.069,1.069,0,0,1-.995.711.642.642,0,0,1-.355-.071l-.711-.213a1.126,1.126,0,0,1-.711-1.35,1.093,1.093,0,0,1,1.35-.711l.711.213a1.172,1.172,0,0,1,.711,1.421Zm5.115,2.7a.642.642,0,0,1-.355-.071l-.711-.213a1.126,1.126,0,0,1-.711-1.35,1.093,1.093,0,0,1,1.35-.711l.711.213a1.126,1.126,0,0,1,.711,1.35,1.046,1.046,0,0,1-.995.781Zm3.268,21.6-.426.568a1.111,1.111,0,0,1-.852.426.806.806,0,0,1-.568-.213,1.052,1.052,0,0,1-.284-1.492l.426-.568a1.052,1.052,0,0,1,1.492-.284,1.205,1.205,0,0,1,.213,1.563Zm3.623-5.257-.426.568a1.111,1.111,0,0,1-.852.426,1.144,1.144,0,0,1-.639-.213,1.052,1.052,0,0,1-.284-1.492l.426-.568a1.052,1.052,0,0,1,1.492-.284,1.147,1.147,0,0,1,.283,1.563Zm.213-15.132a1.069,1.069,0,0,1-.995.711A.642.642,0,0,1,112,61.87l-.711-.213a1.126,1.126,0,0,1-.711-1.35,1.093,1.093,0,0,1,1.35-.711l.711.213a1.246,1.246,0,0,1,.711,1.421Zm3.41,9.875-.426.568a1.2,1.2,0,0,1-.852.5.806.806,0,0,1-.568-.213,1.052,1.052,0,0,1-.284-1.492l.426-.568a1.052,1.052,0,0,1,1.492-.284,1.091,1.091,0,0,1,.213,1.492Zm5.541-17.05a1.065,1.065,0,1,1-2.131,0v-.711a1.065,1.065,0,0,1,2.131,0Zm0-6.393a1.065,1.065,0,0,1-2.131,0v-.711a1.065,1.065,0,1,1,2.131,0Zm0-6.394a1.065,1.065,0,1,1-2.131,0v-.711a1.065,1.065,0,0,1,2.131,0Zm0-6.393a1.065,1.065,0,1,1-2.131,0v-.711a1.065,1.065,0,0,1,2.131,0Zm4.973,37.083a1.132,1.132,0,0,1-.568.213.927.927,0,0,1-.852-.5l-.5-.568a1.074,1.074,0,0,1,1.776-1.208l.426.568a1.052,1.052,0,0,1-.284,1.493Zm9.235,13.427a1.052,1.052,0,0,1,1.492.284l.426.568a1.052,1.052,0,0,1-.284,1.492,1.144,1.144,0,0,1-.639.213,1.013,1.013,0,0,1-.852-.426l-.426-.568a1.277,1.277,0,0,1,.283-1.563Zm-5.612-8.17a1.144,1.144,0,0,1-.639.213,1.013,1.013,0,0,1-.852-.426l-.426-.568a1.074,1.074,0,0,1,1.776-1.208l.426.568a.982.982,0,0,1-.284,1.421Zm.426-15.487-.711.213c-.142,0-.213.071-.355.071a1.05,1.05,0,0,1-.284-2.061l.711-.213a1.066,1.066,0,0,1,1.35.711,1.048,1.048,0,0,1-.711,1.279Zm3.2,20.744a1.132,1.132,0,0,1-.568.213,1.013,1.013,0,0,1-.852-.426l-.426-.568a1.074,1.074,0,0,1,1.776-1.208l.426.568a1.065,1.065,0,0,1-.355,1.421Zm2.841-22.733-.711.213c-.142,0-.213.071-.355.071a1.05,1.05,0,0,1-.284-2.061l.711-.213a1.065,1.065,0,0,1,1.35.711.969.969,0,0,1-.711,1.279Zm6.11-1.918-.711.213c-.142,0-.213.071-.355.071a1.05,1.05,0,0,1-.284-2.061l.711-.213a1.066,1.066,0,0,1,1.35.711.968.968,0,0,1-.711,1.279Zm6.11-1.918-.711.213c-.142,0-.213.071-.355.071a1.05,1.05,0,0,1-.284-2.061l.711-.213a1.065,1.065,0,0,1,1.35.711,1.08,1.08,0,0,1-.711,1.279Z" transform="translate(584.929 3806.105)" fill="#f8cc66"/>
  </g>
</svg>
