<svg width="16" height="17" viewBox="0 0 16 17" fill="none" xmlns="http://www.w3.org/2000/svg">
<path d="M13.7859 11.8563C12.8193 11.0296 11.8384 10.5289 10.8837 11.3543L10.3136 11.8532C9.89654 12.2153 9.12104 13.9074 6.12272 10.4583C3.12502 7.01354 4.90891 6.47719 5.32662 6.11816L5.89981 5.61865C6.84951 4.79133 6.49111 3.74985 5.80616 2.67777L5.39281 2.02841C4.70473 0.958822 3.95546 0.256383 3.00327 1.08245L2.48877 1.53201C2.06793 1.83859 0.891579 2.83512 0.606233 4.72827C0.262818 6.9998 1.34614 9.60101 3.82809 12.4551C6.30692 15.3104 8.73392 16.7447 11.0329 16.7197C12.9436 16.6991 14.0974 15.6738 14.4583 15.3011L14.9747 14.8509C15.9244 14.0254 15.3344 13.185 14.3672 12.3564L13.7859 11.8563Z" fill="white"/>
</svg>
