<svg xmlns="http://www.w3.org/2000/svg" width="94.052" height="94.051" viewBox="0 0 94.052 94.051">
  <g id="Group_15894" data-name="Group 15894" transform="translate(-659 -3820)">
    <rect id="Rectangle_1937" data-name="Rectangle 1937" width="94.052" height="94.052" transform="translate(659 3820)" fill="none"/>
    <g id="Group_15761" data-name="Group 15761" transform="translate(546.724 3712.968)">
      <path id="Path_4261" data-name="Path 4261" d="M250.619,159.743l-10.9-18.876v-6.5c3.484.894,6.979-2.6,10.464-1.08a16.735,16.735,0,0,0-2.621-3.112,6.987,6.987,0,0,1,3.328-1.944c-4.191-2.464-8.393,1.512-12.584-.942.147,1.384.285,2.768.432,4.152h-.01v9.492l-23.018,39.891h22.724l1.708-2.945,8.775-15.2Zm-7.107-1.365-1.8-2.189-1.345,3.642-2.581-4.879-3.023,2.415-.569-2.67v-.01l5.054-8.747,5.506,9.541Z" transform="translate(-79.95)" fill="#f6533f"/>
      <path id="Path_4262" data-name="Path 4262" d="M358.29,273.515h39.078L377.834,239.68Zm22.989-18.454-1.453-1.767-1.089,2.954-2.091-3.955-2.444,1.954-.373-1.747,4-6.93,4.319,7.48Z" transform="translate(-197.536 -92.689)" fill="#f6533f"/>
      <path id="Path_4263" data-name="Path 4263" d="M138.3,239.68,118.77,273.515h14.724l12.172-21.085Zm2,13.615-1.089,2.954-2.091-3.955-2.454,1.954L134.3,252.5l4-6.93,4.319,7.489-.864,2Z" transform="translate(0 -92.689)" fill="#f6533f"/>
    </g>
  </g>
</svg>
