<svg xmlns="http://www.w3.org/2000/svg" width="94.052" height="94.051" viewBox="0 0 94.052 94.051">
  <g id="Group_15888" data-name="Group 15888" transform="translate(-248 -3788.919)">
    <g id="Group_15615" data-name="Group 15615" transform="translate(-411 -31.081)">
      <rect id="Rectangle_1937" data-name="Rectangle 1937" width="94.052" height="94.052" transform="translate(659 3820)" fill="none"/>
      <path id="noun-coral-3385991" d="M144.472,73.288a42.684,42.684,0,0,0-15.966-24.713.6.6,0,0,1,.059-.969,26.47,26.47,0,0,0,10.817-16.089,3.386,3.386,0,0,0-6.611-1.459,19.7,19.7,0,0,1-7.429,11.525.6.6,0,0,1-.876-.179,52.716,52.716,0,0,1-5.938-15.458,3.386,3.386,0,0,0-6.624,1.405A59.488,59.488,0,0,0,127.768,56.8a.6.6,0,0,1-.451,1.017,24.154,24.154,0,0,1-10.5-2.886,3.387,3.387,0,0,0-3.223,5.958,30.935,30.935,0,0,0,17.565,3.589,1.992,1.992,0,0,1,1.885.951,46.831,46.831,0,0,1,3.6,7.3,5.977,5.977,0,0,1-.972,5.983A20.783,20.783,0,0,0,130.95,90.15a1.992,1.992,0,0,0,1.985,2.168h28.2a1.992,1.992,0,0,0,1.711-3.016,26.311,26.311,0,0,0-6.158-7.04,5.976,5.976,0,0,1-1.944-6.555q.6-1.788,1.234-3.562a5.976,5.976,0,0,1,5.364-3.947,25.968,25.968,0,0,0,12.961-4.13,3.386,3.386,0,0,0-3.676-5.689,19.2,19.2,0,0,1-9.376,3.043.6.6,0,0,1-.575-.844,154.432,154.432,0,0,1,14.492-25.263,3.386,3.386,0,0,0-5.531-3.908q-4.414,6.245-8.222,12.888a.6.6,0,0,1-.959.1,19.426,19.426,0,0,1-4.858-10.561,3.387,3.387,0,1,0-6.719.859,26.2,26.2,0,0,0,8.479,16.164.6.6,0,0,1,.131.715,161.2,161.2,0,0,0-9.14,21.9,1.992,1.992,0,0,1-3.833-.191Z" transform="translate(561.805 3809.199)" fill="#f6533f"/>
    </g>
  </g>
</svg>
