<svg xmlns="http://www.w3.org/2000/svg" width="94.052" height="94.051" viewBox="0 0 94.052 94.051">
  <g id="Group_15887" data-name="Group 15887" transform="translate(-248 -3788.919)">
    <g id="Group_15615" data-name="Group 15615" transform="translate(-411 -31.081)">
      <rect id="Rectangle_1937" data-name="Rectangle 1937" width="94.052" height="94.052" transform="translate(659 3820)" fill="none"/>
    </g>
    <path id="Path_4216" data-name="Path 4216" d="M142.5,69.715a8.95,8.95,0,1,1-8.949,8.95A8.948,8.948,0,0,1,142.5,69.715Zm-23.016,0a8.95,8.95,0,1,1-8.949,8.95A8.948,8.948,0,0,1,119.48,69.715ZM128.59,111.5v21.892H110.378V108.726h-4.906v-8.373a10.516,10.516,0,0,1,10.492-10.492H123a10.453,10.453,0,0,1,5.935,1.846,13.185,13.185,0,0,0-3.219,8.646V111.5h2.876Zm36.923-41.785a8.95,8.95,0,1,1-8.95,8.95A8.948,8.948,0,0,1,165.512,69.715Zm9.108,39.012v24.666h-18.21V111.5h2.869V100.356a13.189,13.189,0,0,0-3.219-8.646A10.453,10.453,0,0,1,162,89.864h7.033a10.516,10.516,0,0,1,10.492,10.492v8.373h-4.9Zm-23.016,0v24.666h-18.21V108.727h-4.907v-8.373A10.516,10.516,0,0,1,138.98,89.863h7.033a10.516,10.516,0,0,1,10.492,10.492v8.373Z" transform="translate(152.53 3734.39)" fill="#19338f" fill-rule="evenodd"/>
  </g>
</svg>
