<svg width="16" height="13" viewBox="0 0 16 13" fill="none" xmlns="http://www.w3.org/2000/svg">
<path fill-rule="evenodd" clip-rule="evenodd" d="M1.20919 1.17822L6.072 6.04314C7.13259 7.1017 8.86629 7.10261 9.92776 6.04314L14.7906 1.17822C14.8396 1.12925 14.8324 1.0486 14.7756 1.00898C14.2796 0.663078 13.6762 0.458008 13.0261 0.458008H2.97368C2.3236 0.458008 1.72015 0.663108 1.22416 1.00898C1.16735 1.0486 1.16021 1.12925 1.20919 1.17822ZM-0.090332 3.52198C-0.090332 3.01081 0.0364062 2.52783 0.259649 2.10332C0.294559 2.03691 0.383047 2.02348 0.436098 2.07653L5.23735 6.87779C6.75776 8.4004 9.24112 8.40128 10.7625 6.87779L15.5637 2.07653C15.6168 2.02348 15.7053 2.03691 15.7402 2.10332C15.9634 2.52783 16.0901 3.01085 16.0901 3.52198V9.91821C16.0901 11.609 14.7148 12.9822 13.0261 12.9822H2.97368C1.28505 12.9822 -0.090332 11.609 -0.090332 9.91821V3.52198Z" fill="white"/>
</svg>
